<svg id="Layer_1" data-name="Layer 1" xmlns="http://www.w3.org/2000/svg" viewBox="0 0 32 32"><defs><style>.cls-1{fill:#121f3d;}.cls-2{fill:#fff;}.cls-3{fill:#8bbb3f;}</style></defs><rect class="cls-1" width="32" height="32"/><g id="Dale_Original" data-name="Dale Original"><g id="DALE"><path class="cls-2" d="M9.18,14.05A9,9,0,0,1,7.92,14a1.78,1.78,0,0,1-.84-.31,1.29,1.29,0,0,1-.47-.7,4.29,4.29,0,0,1-.15-1.26,4.09,4.09,0,0,1,.15-1.22,1.34,1.34,0,0,1,.47-.69,1.89,1.89,0,0,1,.84-.31,9.15,9.15,0,0,1,1.26-.07,6,6,0,0,1,1.21.1,1.34,1.34,0,0,1,.78.49V8h.74v6h-.74v-.51a1.29,1.29,0,0,1-.78.49A5.88,5.88,0,0,1,9.18,14.05Zm2-2.35a4.23,4.23,0,0,0-.08-.89.86.86,0,0,0-.29-.5,1.28,1.28,0,0,0-.6-.23,9.08,9.08,0,0,0-1-.05,9.89,9.89,0,0,0-1.08.05,1.2,1.2,0,0,0-.6.23.87.87,0,0,0-.24.5,5.32,5.32,0,0,0-.06.89,5.55,5.55,0,0,0,.06.92.9.9,0,0,0,.24.52,1.11,1.11,0,0,0,.6.23,7.61,7.61,0,0,0,1.08.06,7,7,0,0,0,1-.06,1.18,1.18,0,0,0,.6-.23.88.88,0,0,0,.29-.52A4.41,4.41,0,0,0,11.17,11.7Z"/><path class="cls-2" d="M15,14a6,6,0,0,1-1.32-.11,1.2,1.2,0,0,1-.78-.47,2.09,2.09,0,0,1-.25-1.14,2.18,2.18,0,0,1,.24-1.16,1.18,1.18,0,0,1,.75-.48A7.08,7.08,0,0,1,15,10.54c.45,0,.83,0,1.13,0a6,6,0,0,1,.83.14,8.68,8.68,0,0,0-.07-1.05,1.16,1.16,0,0,0-.23-.57.91.91,0,0,0-.5-.24,6.58,6.58,0,0,0-.87,0,8.06,8.06,0,0,0-1,0,1.26,1.26,0,0,0-.51.12.4.4,0,0,0-.2.26,1.83,1.83,0,0,0,0,.44h-.74a2.63,2.63,0,0,1,.11-.87.94.94,0,0,1,.39-.5A1.75,1.75,0,0,1,14,8.07,10,10,0,0,1,15.24,8a4.82,4.82,0,0,1,1.26.13,1.25,1.25,0,0,1,.73.47,2.16,2.16,0,0,1,.33.94,11.16,11.16,0,0,1,.09,1.57V13.9h-.74v-.39a1,1,0,0,1-.37.29,2.42,2.42,0,0,1-.61.16A8.7,8.7,0,0,1,15,14Zm0-.78,1.05,0a1.62,1.62,0,0,0,.59-.11.5.5,0,0,0,.26-.29,2.1,2.1,0,0,0,.06-.57v-.88l-2,0c-.35,0-.63,0-.84,0a1.29,1.29,0,0,0-.49.12.49.49,0,0,0-.22.3,1.88,1.88,0,0,0-.06.53,1.81,1.81,0,0,0,.06.52.48.48,0,0,0,.22.28,1.14,1.14,0,0,0,.49.11Q14.43,13.23,15,13.23Z"/><path class="cls-2" d="M18.38,14V8h.95v6Z"/><path class="cls-2" d="M25.45,12.18a2.74,2.74,0,0,1-.15,1,1.05,1.05,0,0,1-.46.55,2,2,0,0,1-.77.21,9.47,9.47,0,0,1-1.13,0,6.6,6.6,0,0,1-1.27-.1,1.58,1.58,0,0,1-.83-.4,1.75,1.75,0,0,1-.47-.91A7.65,7.65,0,0,1,20.23,11a7.37,7.37,0,0,1,.14-1.58,1.75,1.75,0,0,1,.46-.89,1.58,1.58,0,0,1,.83-.4A6.42,6.42,0,0,1,22.92,8a5.53,5.53,0,0,1,1.41.15,1.39,1.39,0,0,1,.84.59A2.48,2.48,0,0,1,25.45,10v1.25H21a8.26,8.26,0,0,0,.07,1,1,1,0,0,0,.27.59,1.08,1.08,0,0,0,.59.26,7.08,7.08,0,0,0,1,.06c.39,0,.71,0,.95,0a1.64,1.64,0,0,0,.55-.13.59.59,0,0,0,.25-.31,2.12,2.12,0,0,0,.06-.56ZM22.92,8.81a6.73,6.73,0,0,0-1,.06,1.24,1.24,0,0,0-.59.23,1,1,0,0,0-.27.52,5.15,5.15,0,0,0-.08.9h3.77V10a2.47,2.47,0,0,0-.07-.6.63.63,0,0,0-.25-.37,1.13,1.13,0,0,0-.54-.19A6.1,6.1,0,0,0,22.92,8.81Z"/></g><g id="Logotipo"><g id="happyFace"><path class="cls-3" d="M27.9,17.3A14,14,0,0,1,4,17.3H6.16a12.22,12.22,0,0,0,19.6,0Z"/><path class="cls-3" d="M28,16.27H4a13.23,13.23,0,0,1,.5-1.42h23A13.23,13.23,0,0,1,28,16.27Z"/></g><g id="Bigotes"><path class="cls-2" d="M2.61,14.85c-.16.46-.31.94-.43,1.42H.58V14.85Z"/><path class="cls-2" d="M31.42,14.85v1.42h-1.6c-.12-.48-.27-1-.43-1.42Z"/></g></g></g></svg>