<svg id="Layer_1" data-name="Layer 1" xmlns="http://www.w3.org/2000/svg" viewBox="0 0 48 24.91"><defs><style>.cls-1{fill:#fff;}.cls-2{fill:#8bbb3f;}</style></defs><g id="Dale_Original" data-name="Dale Original"><g id="DALE"><path class="cls-1" d="M13.39,20.42a13.75,13.75,0,0,1-2-.12,2.94,2.94,0,0,1-1.31-.48,2,2,0,0,1-.73-1.1,6.84,6.84,0,0,1-.23-1.95,6.46,6.46,0,0,1,.23-1.9,2,2,0,0,1,.73-1.08,2.94,2.94,0,0,1,1.31-.48,13.75,13.75,0,0,1,2-.12,8.43,8.43,0,0,1,1.88.17,2,2,0,0,1,1.2.75V11h1.16v9.28H16.47v-.79a2,2,0,0,1-1.2.76A9.07,9.07,0,0,1,13.39,20.42Zm3.08-3.65a6.45,6.45,0,0,0-.12-1.39,1.39,1.39,0,0,0-.44-.78,1.89,1.89,0,0,0-.93-.35,11.38,11.38,0,0,0-1.59-.09,12.65,12.65,0,0,0-1.7.09,1.74,1.74,0,0,0-.92.35,1.34,1.34,0,0,0-.38.78,8.54,8.54,0,0,0-.09,1.39,9.09,9.09,0,0,0,.09,1.43,1.4,1.4,0,0,0,.38.81,1.74,1.74,0,0,0,.92.35,12.65,12.65,0,0,0,1.7.09A11.38,11.38,0,0,0,15,19.36a1.89,1.89,0,0,0,.93-.35,1.44,1.44,0,0,0,.44-.81A6.86,6.86,0,0,0,16.47,16.77Z" transform="translate(0 -11)"/><path class="cls-1" d="M22.36,20.36a10.4,10.4,0,0,1-2.05-.17,1.87,1.87,0,0,1-1.21-.74,3.18,3.18,0,0,1-.39-1.77,3.36,3.36,0,0,1,.37-1.8,1.77,1.77,0,0,1,1.17-.75A10.86,10.86,0,0,1,22.36,15q1,0,1.77.06a7.22,7.22,0,0,1,1.28.22,11.18,11.18,0,0,0-.11-1.64,1.67,1.67,0,0,0-.36-.89,1.3,1.3,0,0,0-.77-.37,9.56,9.56,0,0,0-1.35-.08,14.76,14.76,0,0,0-1.51.06,2.11,2.11,0,0,0-.79.19.67.67,0,0,0-.31.41,3.2,3.2,0,0,0-.06.69H19a4.51,4.51,0,0,1,.17-1.36,1.44,1.44,0,0,1,.61-.79A3.11,3.11,0,0,1,21,11.1,16,16,0,0,1,22.82,11a8,8,0,0,1,2,.2,2.06,2.06,0,0,1,1.13.73,3.3,3.3,0,0,1,.52,1.48,17.73,17.73,0,0,1,.14,2.44v4.33H25.41v-.62a1.33,1.33,0,0,1-.56.45,3.29,3.29,0,0,1-1,.26A12.61,12.61,0,0,1,22.36,20.36Zm0-1.22c.68,0,1.23,0,1.64,0a2.73,2.73,0,0,0,.92-.17.76.76,0,0,0,.4-.46,3.25,3.25,0,0,0,.09-.87V16.22l-3.05,0a12.6,12.6,0,0,0-1.31,0,1.87,1.87,0,0,0-.75.18.72.72,0,0,0-.35.46,3,3,0,0,0-.09.83,2.79,2.79,0,0,0,.09.8.68.68,0,0,0,.35.44,1.71,1.71,0,0,0,.75.18C21.38,19.13,21.82,19.14,22.36,19.14Z" transform="translate(0 -11)"/><path class="cls-1" d="M27.7,20.28V11h1.48v9.28Z" transform="translate(0 -11)"/><path class="cls-1" d="M38.71,17.51a4.25,4.25,0,0,1-.24,1.59,1.56,1.56,0,0,1-.7.84,2.93,2.93,0,0,1-1.21.34,17.56,17.56,0,0,1-1.76.08,11,11,0,0,1-2-.15,2.57,2.57,0,0,1-1.3-.63,2.8,2.8,0,0,1-.72-1.42,11.25,11.25,0,0,1-.23-2.52,11.49,11.49,0,0,1,.22-2.46,2.78,2.78,0,0,1,.72-1.39,2.48,2.48,0,0,1,1.29-.62,10,10,0,0,1,2-.16,8.43,8.43,0,0,1,2.2.24,2.19,2.19,0,0,1,1.31.92,3.86,3.86,0,0,1,.43,2V16.1h-7a10.79,10.79,0,0,0,.11,1.6,1.71,1.71,0,0,0,.41.91,1.64,1.64,0,0,0,.92.4,10,10,0,0,0,1.62.1c.61,0,1.1,0,1.48-.05a2.1,2.1,0,0,0,.85-.21.77.77,0,0,0,.4-.48,2.85,2.85,0,0,0,.1-.86Zm-3.94-5.25a10.87,10.87,0,0,0-1.57.09,1.91,1.91,0,0,0-.92.37,1.49,1.49,0,0,0-.42.8,8.18,8.18,0,0,0-.12,1.4H37.6v-.75a3.56,3.56,0,0,0-.1-.94,1.08,1.08,0,0,0-.39-.58,1.72,1.72,0,0,0-.85-.3A9.77,9.77,0,0,0,34.77,12.26Z" transform="translate(0 -11)"/></g><g id="Logotipo"><g id="happyFace"><path class="cls-2" d="M42.52,25.48a21.77,21.77,0,0,1-37.17,0H8.68a19,19,0,0,0,30.52,0Z" transform="translate(0 -11)"/><path class="cls-2" d="M42.65,23.88H5.35a20.82,20.82,0,0,1,.78-2.22H41.87A20.82,20.82,0,0,1,42.65,23.88Z" transform="translate(0 -11)"/></g><g id="Bigotes"><path class="cls-1" d="M3.16,21.66a20.35,20.35,0,0,0-.67,2.22H0V21.66Z" transform="translate(0 -11)"/><path class="cls-1" d="M48,21.66v2.22H45.51a20.35,20.35,0,0,0-.67-2.22Z" transform="translate(0 -11)"/></g></g></g></svg>