<svg id="Layer_1" data-name="Layer 1" xmlns="http://www.w3.org/2000/svg" viewBox="0 0 48 29.73"><defs><style>.cls-1{font-size:12.38px;}.cls-1,.cls-2,.cls-3,.cls-5{fill:#fff;}.cls-1,.cls-2,.cls-3{font-family:Michroma-Regular, Michroma;}.cls-2{font-size:16.01px;}.cls-3{font-size:16.01px;}.cls-4{fill:#8bbb3f;}</style></defs><g id="Dale_Original" data-name="Dale Original"><g id="DALE"><text class="cls-1" transform="translate(8.57 14.1) scale(0.99 1)">d</text><text class="cls-2" transform="translate(17.93 14.01) scale(0.77 1)">a</text><text class="cls-1" transform="translate(26.22 14.1) scale(1.28 1)">l</text><text class="cls-3" transform="translate(30.01 14.01) scale(0.77 1)">e</text></g><g id="Happy_Bigotes" data-name="Happy&amp;Bigotes"><g id="happyFace"><path class="cls-4" d="M42.52,28.61a21.78,21.78,0,0,1-37.17,0H8.68a19,19,0,0,0,30.52,0Z" transform="translate(0 -9.3)"/><path class="cls-4" d="M42.65,27H5.35a20.82,20.82,0,0,1,.78-2.22H41.87A20.82,20.82,0,0,1,42.65,27Z" transform="translate(0 -9.3)"/></g><g id="Bigotes"><path class="cls-5" d="M3.16,24.78A21.78,21.78,0,0,0,2.49,27H0V24.78Z" transform="translate(0 -9.3)"/><path class="cls-5" d="M48,24.78V27H45.51a21.78,21.78,0,0,0-.67-2.22Z" transform="translate(0 -9.3)"/></g></g></g></svg>