<svg id="Layer_1" data-name="Layer 1" xmlns="http://www.w3.org/2000/svg" viewBox="0 0 32 32"><defs><style>.cls-1{fill:#121f3d;}.cls-2{fill:#fff;}.cls-3{fill:#8bbb3f;}</style></defs><circle class="cls-1" cx="16" cy="16" r="16"/><g id="Dale_Original" data-name="Dale Original"><g id="DALE"><path class="cls-2" d="M9.15,15A9.2,9.2,0,0,1,7.87,15,1.78,1.78,0,0,1,7,14.65a1.31,1.31,0,0,1-.47-.71,4.24,4.24,0,0,1-.15-1.26,4.12,4.12,0,0,1,.15-1.23A1.34,1.34,0,0,1,7,10.76a1.78,1.78,0,0,1,.84-.31,9.2,9.2,0,0,1,1.28-.08,5.88,5.88,0,0,1,1.21.11,1.25,1.25,0,0,1,.78.49V9h.74v6h-.74v-.51a1.29,1.29,0,0,1-.78.49A5.88,5.88,0,0,1,9.15,15Zm2-2.36a4.16,4.16,0,0,0-.08-.89.86.86,0,0,0-.29-.51,1.28,1.28,0,0,0-.6-.23,7,7,0,0,0-1-.06,7.92,7.92,0,0,0-1.1.06,1.12,1.12,0,0,0-.59.23.82.82,0,0,0-.25.51,5.4,5.4,0,0,0,0,.89,6,6,0,0,0,0,.93.88.88,0,0,0,.25.52,1.12,1.12,0,0,0,.59.23,10.31,10.31,0,0,0,1.1.05,9.08,9.08,0,0,0,1-.05,1.28,1.28,0,0,0,.6-.23.92.92,0,0,0,.29-.52A4.58,4.58,0,0,0,11.14,12.68Z" transform="translate(0)"/><path class="cls-2" d="M14.94,15a6.18,6.18,0,0,1-1.33-.11,1.2,1.2,0,0,1-.77-.47,2.06,2.06,0,0,1-.26-1.15,2.16,2.16,0,0,1,.24-1.16,1.15,1.15,0,0,1,.76-.49,7,7,0,0,1,1.36-.11c.46,0,.84,0,1.14,0a5.72,5.72,0,0,1,.83.14,6.91,6.91,0,0,0-.07-1,1.16,1.16,0,0,0-.23-.58.87.87,0,0,0-.5-.24,6.58,6.58,0,0,0-.87-.05,8.14,8.14,0,0,0-1,0,1.26,1.26,0,0,0-.51.12.37.37,0,0,0-.2.27,1.72,1.72,0,0,0-.05.44h-.74a3,3,0,0,1,.11-.88.94.94,0,0,1,.39-.5A1.84,1.84,0,0,1,14,9,10,10,0,0,1,15.24,9a5.29,5.29,0,0,1,1.26.13,1.28,1.28,0,0,1,.73.48,2,2,0,0,1,.34.95,11.16,11.16,0,0,1,.09,1.57v2.8h-.75v-.4a.94.94,0,0,1-.36.29,2.11,2.11,0,0,1-.62.17A8.76,8.76,0,0,1,14.94,15Zm0-.79c.44,0,.8,0,1.06,0a1.62,1.62,0,0,0,.59-.11.47.47,0,0,0,.26-.29,2.05,2.05,0,0,0,.06-.57v-.89l-2,0a7,7,0,0,0-.84,0,1.29,1.29,0,0,0-.49.12.48.48,0,0,0-.23.29,2.54,2.54,0,0,0-.05.54,2.34,2.34,0,0,0,.05.52.46.46,0,0,0,.23.28,1.29,1.29,0,0,0,.49.12C14.31,14.21,14.59,14.21,14.94,14.21Z" transform="translate(0)"/><path class="cls-2" d="M18.39,15V9h1v6Z" transform="translate(0)"/><path class="cls-2" d="M25.5,13.16a2.84,2.84,0,0,1-.15,1,1,1,0,0,1-.46.54,1.85,1.85,0,0,1-.78.22c-.32,0-.7.05-1.13.05a6.53,6.53,0,0,1-1.27-.1,1.65,1.65,0,0,1-.85-.4,1.81,1.81,0,0,1-.46-.92A7.11,7.11,0,0,1,20.25,12a7.3,7.3,0,0,1,.14-1.58,1.82,1.82,0,0,1,.46-.9,1.7,1.7,0,0,1,.84-.41A7.52,7.52,0,0,1,23,9a5.62,5.62,0,0,1,1.42.16,1.38,1.38,0,0,1,.84.6A2.45,2.45,0,0,1,25.5,11v1.25H21a6.71,6.71,0,0,0,.07,1,1,1,0,0,0,.27.59,1,1,0,0,0,.59.26,7.24,7.24,0,0,0,1.05.06c.39,0,.71,0,.95,0a1.38,1.38,0,0,0,.55-.13.53.53,0,0,0,.26-.31,2.07,2.07,0,0,0,.06-.56ZM23,9.77a7,7,0,0,0-1,.06,1.15,1.15,0,0,0-.59.24.84.84,0,0,0-.27.51,4.37,4.37,0,0,0-.08.91h3.78V11a2.52,2.52,0,0,0-.06-.6.67.67,0,0,0-.25-.38,1.22,1.22,0,0,0-.55-.19A6.1,6.1,0,0,0,23,9.77Z" transform="translate(0)"/></g><g id="Logotipo"><g id="happyFace"><path class="cls-3" d="M28,18.31a14.06,14.06,0,0,1-24,0H6.11a12.29,12.29,0,0,0,19.71,0Z" transform="translate(0)"/><path class="cls-3" d="M28,17.27H4a14.23,14.23,0,0,1,.5-1.43H27.54A14.23,14.23,0,0,1,28,17.27Z" transform="translate(0)"/></g><g id="Bigotes"><path class="cls-2" d="M2.54,15.84a14.65,14.65,0,0,0-.43,1.43H.5V15.84Z" transform="translate(0)"/><path class="cls-2" d="M31.5,15.84v1.43H29.89a14.65,14.65,0,0,0-.43-1.43Z" transform="translate(0)"/></g></g></g></svg>