<svg id="Layer_1" data-name="Layer 1" xmlns="http://www.w3.org/2000/svg" viewBox="0 0 32.07 19.87"><defs><style>.cls-1{font-size:8.27px;}.cls-1,.cls-2,.cls-3,.cls-5{fill:#fff;}.cls-1,.cls-2,.cls-3{font-family:Michroma-Regular, Michroma;}.cls-2{font-size:10.7px;}.cls-3{font-size:10.7px;}.cls-4{fill:#8bbb3f;}</style></defs><g id="Dale_Original" data-name="Dale Original"><g id="DALE"><text class="cls-1" transform="translate(5.73 9.43) scale(0.99 1)">d</text><text class="cls-2" transform="translate(11.98 9.36) scale(0.77 1)">a</text><text class="cls-1" transform="translate(17.52 9.43) scale(1.28 1)">l</text><text class="cls-3" transform="translate(20.05 9.36) scale(0.77 1)">e</text></g><g id="Happy_Bigotes" data-name="Happy&amp;Bigotes"><g id="happyFace"><path class="cls-4" d="M28.38,19A14.56,14.56,0,0,1,3.54,19H5.76a12.74,12.74,0,0,0,20.4,0Z" transform="translate(0.04 -6.07)"/><path class="cls-4" d="M28.46,17.89H3.54a13,13,0,0,1,.52-1.48H27.94A13,13,0,0,1,28.46,17.89Z" transform="translate(0.04 -6.07)"/></g><g id="Bigotes"><path class="cls-5" d="M2.07,16.41c-.17.49-.32,1-.44,1.48H0V16.41Z" transform="translate(0.04 -6.07)"/><path class="cls-5" d="M32,16.41v1.48H30.37c-.12-.5-.27-1-.44-1.48Z" transform="translate(0.04 -6.07)"/></g></g></g></svg>