<svg id="Layer_1" data-name="Layer 1" xmlns="http://www.w3.org/2000/svg" viewBox="0 0 32 16.61"><defs><style>.cls-1{fill:#fff;}.cls-2{fill:#8bbb3f;}</style></defs><g id="Dale_Original" data-name="Dale Original"><g id="DALE"><path class="cls-1" d="M8.93,14a9.9,9.9,0,0,1-1.32-.07,1.91,1.91,0,0,1-.87-.33,1.36,1.36,0,0,1-.49-.73,4.54,4.54,0,0,1-.15-1.3,4.24,4.24,0,0,1,.15-1.26,1.37,1.37,0,0,1,.49-.72,1.91,1.91,0,0,1,.87-.32,8.33,8.33,0,0,1,1.32-.08,5.63,5.63,0,0,1,1.25.11,1.28,1.28,0,0,1,.8.5V7.7h.77v6.19H11v-.54a1.25,1.25,0,0,1-.8.51A5.63,5.63,0,0,1,8.93,14ZM11,11.54a3.87,3.87,0,0,0-.08-.92.88.88,0,0,0-.29-.52A1.3,1.3,0,0,0,10,9.86,7.43,7.43,0,0,0,8.93,9.8a8.21,8.21,0,0,0-1.13.06,1.15,1.15,0,0,0-.62.24.85.85,0,0,0-.25.52,5.63,5.63,0,0,0-.06.92,6.1,6.1,0,0,0,.06,1,.88.88,0,0,0,.25.53,1.15,1.15,0,0,0,.62.24,8.21,8.21,0,0,0,1.13.06A7.43,7.43,0,0,0,10,13.27a1.3,1.3,0,0,0,.63-.24.91.91,0,0,0,.29-.53A4.19,4.19,0,0,0,11,11.54Z" transform="translate(0 -7.7)"/><path class="cls-1" d="M14.91,13.94a7.27,7.27,0,0,1-1.37-.11,1.22,1.22,0,0,1-.8-.5,2.06,2.06,0,0,1-.27-1.18,2.19,2.19,0,0,1,.25-1.2,1.15,1.15,0,0,1,.78-.5,6.81,6.81,0,0,1,1.41-.11c.47,0,.86,0,1.18,0a4.86,4.86,0,0,1,.85.14,7.52,7.52,0,0,0-.07-1.09,1.11,1.11,0,0,0-.24-.59.88.88,0,0,0-.52-.25,6.86,6.86,0,0,0-.9-.05c-.42,0-.76,0-1,0a1.62,1.62,0,0,0-.53.13.4.4,0,0,0-.2.28,1.81,1.81,0,0,0-.05.45h-.77a2.8,2.8,0,0,1,.12-.9A.94.94,0,0,1,13.19,8,1.89,1.89,0,0,1,14,7.77a8.56,8.56,0,0,1,1.24-.07,5.13,5.13,0,0,1,1.31.14,1.29,1.29,0,0,1,.75.49,2.16,2.16,0,0,1,.35,1,11.91,11.91,0,0,1,.09,1.63v2.88h-.77v-.41a.88.88,0,0,1-.38.3,1.91,1.91,0,0,1-.63.17A7.16,7.16,0,0,1,14.91,13.94Zm0-.82c.45,0,.82,0,1.09,0a1.7,1.7,0,0,0,.61-.11.47.47,0,0,0,.27-.3,2.27,2.27,0,0,0,.06-.59v-.92l-2,0a7.61,7.61,0,0,0-.88,0,1.4,1.4,0,0,0-.5.12.53.53,0,0,0-.23.3,2.12,2.12,0,0,0-.06.56,2,2,0,0,0,.06.54.48.48,0,0,0,.23.29,1.4,1.4,0,0,0,.5.12C14.25,13.12,14.54,13.12,14.91,13.12Z" transform="translate(0 -7.7)"/><path class="cls-1" d="M18.47,13.89V7.7h1v6.19Z" transform="translate(0 -7.7)"/><path class="cls-1" d="M25.8,12a3,3,0,0,1-.15,1.06,1.09,1.09,0,0,1-.47.56,2.16,2.16,0,0,1-.81.23c-.33,0-.72,0-1.17,0a7,7,0,0,1-1.31-.11,1.61,1.61,0,0,1-.87-.41,1.89,1.89,0,0,1-.48-.95,7.53,7.53,0,0,1-.15-1.68,7.2,7.2,0,0,1,.15-1.64A1.78,1.78,0,0,1,21,8.22a1.77,1.77,0,0,1,.86-.41,7,7,0,0,1,1.31-.11,5.5,5.5,0,0,1,1.47.17,1.4,1.4,0,0,1,.87.61,2.53,2.53,0,0,1,.28,1.33V11.1H21.16a8.87,8.87,0,0,0,.07,1.06,1.12,1.12,0,0,0,.28.61,1.15,1.15,0,0,0,.61.27,7.7,7.7,0,0,0,1.08.06q.61,0,1,0a1.48,1.48,0,0,0,.57-.14.52.52,0,0,0,.26-.32,2.1,2.1,0,0,0,.07-.57Zm-2.62-3.5a7.43,7.43,0,0,0-1.05.06,1.18,1.18,0,0,0-.61.24.93.93,0,0,0-.28.54,5.35,5.35,0,0,0-.08.93h3.91v-.5A2.59,2.59,0,0,0,25,9.19a.64.64,0,0,0-.26-.39,1.26,1.26,0,0,0-.57-.21A8.5,8.5,0,0,0,23.18,8.54Z" transform="translate(0 -7.7)"/></g><g id="Logotipo"><g id="happyFace"><path class="cls-2" d="M28.35,17.35a14.52,14.52,0,0,1-24.78,0H5.79a12.68,12.68,0,0,0,20.34,0Z" transform="translate(0 -7.7)"/><path class="cls-2" d="M28.43,16.28H3.57a12.19,12.19,0,0,1,.52-1.47H27.91A12.19,12.19,0,0,1,28.43,16.28Z" transform="translate(0 -7.7)"/></g><g id="Bigotes"><path class="cls-1" d="M2.11,14.81a12.47,12.47,0,0,0-.45,1.47H0V14.81Z" transform="translate(0 -7.7)"/><path class="cls-1" d="M32,14.81v1.47H30.34a12.47,12.47,0,0,0-.45-1.47Z" transform="translate(0 -7.7)"/></g></g></g></svg>