<svg id="Layer_1" data-name="Layer 1" xmlns="http://www.w3.org/2000/svg" viewBox="0 0 342 229.03"><defs><style>.cls-1{fill:#03254b;}.cls-2{fill:#8cbd3f;}.cls-3{fill:#fff;}</style></defs><g id="LOGO"><path id="BackgroundBlue" class="cls-1" d="M339.34,64.41q-14.58,3.8-29.14,7.72c-1.22.31-1.62.18-1.28-1.11.24-1,.42-2,.66-3.15-1.64.29-3,.53-4.41.82-1.09.25-1.36-.06-1.29-1.22a65.69,65.69,0,0,0-.2-12.85c-.89-6.83-4.06-11.89-10.92-14.13a39.76,39.76,0,0,0-11.71-1.91,2.15,2.15,0,0,1-2.4-1.66,113.42,113.42,0,0,0-5.84-12.87c-3.9-7.35-10.18-11.14-18.15-12.48a195.4,195.4,0,0,0-28.8-2.08,51.77,51.77,0,0,0-25.39,6.17c-15.46,8.16-31,16.11-46.55,24.21-21.66,11.31-43.16,22.94-64.64,34.64-23.48,12.8-46.94,25.63-69.9,39.34-2.73,1.64-5.44,3.35-8.15,5,22.39-7.28,43.76-17.18,66-24.75C51.71,107.82,26.43,121.93,2,137.73c13.18-2,23.51-11.15,37.21-11.7.56,0-13.58,7.42-20,11.83q24-7.65,48-15.29v0a3.73,3.73,0,0,1,.47,0h.11a6.07,6.07,0,0,1,1.53.11c2.09.13,4.46.53,6,1.78l.13.13a2.59,2.59,0,0,1,.45.49,2.82,2.82,0,0,1,.42.64,2.91,2.91,0,0,1,.22.6,3.44,3.44,0,0,1,.2.93v0L61.56,238.41a.07.07,0,0,0,0,.06v.05l63.13-16c-3.55,4.88-6.84,9.39-10.12,13.94-.49.64-1,1.3-1.44,2l-.07.07.29-.07c8.49-.47,18-4.22,26.23-6.12L277,200.26l.17,0,28.59-6.53a3.72,3.72,0,0,0,1.11-.4,2.36,2.36,0,0,0,.82-.84l2.48-11.18,8.15-29.72s.42-6.3,3.83-7.28l2.36-.51c1.11-.22,2.17-.46,3.28-.73l.22,0a.3.3,0,0,0,.16,0L344,63.17C342.38,63.54,340.87,64,339.34,64.41ZM191.86,39.69l0,0c-.11.07-.2.14-.31.2C191.66,39.85,191.75,39.76,191.86,39.69Zm4.73-11.36a1.92,1.92,0,0,1-.31.11l.31-.13Z" transform="translate(-2 -9.48)"/><path id="RayaGreenBottom" class="cls-2" d="M131.25,224.22c8.7-2.66,17.47-5,26.27-7.32,17.62-4.57,35.34-8.74,53-12.91l81.34-19.16c2.83-.67,5.67-1.3,8.49-2,.9-.23,1.41-.34.93.83a3.24,3.24,0,0,0-.16.53c-.64,4.23-.64,4.23-4.74,5.12q-31.68,6.86-63.37,13.69-30.51,6.56-61,13C158.94,218.79,131.33,224.32,131.25,224.22Z" transform="translate(-2 -9.48)"/><g id="_DALE_RD_EXPRESS" data-name="¡DALE!RD EXPRESS"><path id="S2" class="cls-3" d="M292.75,165.84a22.93,22.93,0,0,1-3.53-.2c-3.43-.71-4.63-3.66-3.08-7.65,2.05-5.29,6.26-8.07,11.55-9.39,2.94-.73,5.92-1.22,8.94-.09.9.34.94.59.49,1.26-.16.25-.29.54-.44.81-1.19,2.2-2,4.4-5.58,3.34a7.75,7.75,0,0,0-7.35,2.17,2.16,2.16,0,0,0-.81,2.32c.33,1,1.27,1,2.17,1,1.49,0,3,0,4.47,0,4.31,0,6.23,2.57,5.06,6.72-1.71,6-6.07,9.21-11.83,10.79a15.73,15.73,0,0,1-9.48.07c-1.35-.46-1.28-.84-.57-1.84.92-1.3,1.38-3.08,2.55-4s2.92.46,4.49.36c2.63-.16,5.21-.3,7.13-2.43a2.24,2.24,0,0,0,.72-2.51c-.39-.85-1.27-.85-2.1-.83s-1.87,0-2.8,0Z" transform="translate(-2 -9.48)"/><path id="S" class="cls-3" d="M273.21,164.63c.37,0,.75,0,1.12,0,4.78-.36,7.67,2.33,5.71,8-1.62,4.73-5.27,7.45-9.79,9.13a18.66,18.66,0,0,1-10.74.78c-1.17-.26-1.59-.8-.84-1.89.14-.2.24-.44.36-.65a13.08,13.08,0,0,1,2-3.32c1-1,2.36.22,3.58.26a14,14,0,0,0,6.32-1.13,4.88,4.88,0,0,0,2.17-1.66c1.09-1.62.48-2.93-1.45-3-1.55-.06-3.11.19-4.65.13-4.54-.18-6.43-2.89-5.13-7.25,1.67-5.6,6-8.24,11.15-9.83a14.49,14.49,0,0,1,8.93-.27c.77.24,1.13.55.56,1.36a16.53,16.53,0,0,0-1.09,1.93c-.89,1.71-1.74,2.74-4.17,2-2.26-.66-4.75.19-6.91,1.44a3.56,3.56,0,0,0-1.41,1.68c-.6,1.34-.12,2.17,1.35,2.25,1,.06,2,0,3,0Z" transform="translate(-2 -9.48)"/><path id="E3" class="cls-3" d="M244.83,171,256,168.58c.44.4.14.61.15.82.18,4-1.85,5.75-5.74,5.88a25.46,25.46,0,0,0-4.33.9c-.78.16-1.93.09-2.19.72A13.41,13.41,0,0,0,243,181c0,.76.78.36,1.16.28,3.65-.8,7.29-1.64,11.1-2.51-.27,1.8-.5,3.49-.81,5.17-.12.65-.75.7-1.31.81-5.35,1.14-10.73,2.21-16.05,3.48-1.48.36-1.42-.17-1.22-1.18q1.38-7.26,2.78-14.52c.54-2.79,1.2-5.55,1.63-8.34.25-1.62.7-2.47,2.58-2.81,5.35-1,10.64-2.26,16.13-3.47-.34,1.65-.66,3.13-.94,4.62-.17.9-.61,1.21-1.58,1.39-3.14.59-6.22,1.48-9.36,2.08-1.14.21-1.58.55-1.62,1.73A19.4,19.4,0,0,1,244.83,171Z" transform="translate(-2 -9.48)"/><path id="R2" class="cls-3" d="M209.76,194.66c1.63-8.66,3.24-17.07,4.78-25.49.17-.87.49-1.37,1.32-1.52,4-.7,7.93-1.85,12-2.37,5.22-.68,7.86,2.06,6.79,7.22a12.11,12.11,0,0,1-5.92,8.35c-.92.52-.86.89-.5,1.67.85,1.89,1.55,3.85,2.44,5.72.51,1.07.86,1.74-.84,1.81a10.11,10.11,0,0,0-3.24.74c-1.72.68-2.56.15-3-1.6-.38-1.48-1-2.89-1.52-4.35-.22-.66-.41-1.52-1.27-1.15-1.09.45-2.81-.3-3.22,1.49-.51,2.28-1.06,4.56-1.39,6.87a1.65,1.65,0,0,1-1.48,1.54C213.11,194,211.54,194.28,209.76,194.66Zm9-15.75a19.84,19.84,0,0,0,5.91-1.25,5.15,5.15,0,0,0,3.24-3.76c.46-1.9-.75-3.15-2.68-2.83-1.28.21-2.54.51-3.83.63a1.61,1.61,0,0,0-1.64,1.61C219.5,175.12,219.13,176.91,218.77,178.91Z" transform="translate(-2 -9.48)"/><path id="P" class="cls-3" d="M185.39,199.71c1.68-8.8,3.31-17.32,4.9-25.85.11-.61.36-.9.89-1,4.14-.69,8.15-2.07,12.36-2.29,4.74-.26,7,2.64,6,7.31-1.38,6.3-5.42,9.86-11.51,11.34-1.61.39-4,.17-4.67,1.16-1.11,1.67-1.26,4.06-1.53,6.18-.16,1.34-.5,2-1.93,2.11A35.87,35.87,0,0,0,185.39,199.71Zm8.88-15.92c-.29.79.54.74,1.3.58a24.93,24.93,0,0,0,3.74-.93A5.27,5.27,0,0,0,203,179c.23-1.68-.45-2.47-2.12-2.54a18.39,18.39,0,0,0-4.54.67c-.7.15-.85.6-1,1.14C195,180,194.7,181.64,194.27,183.79Z" transform="translate(-2 -9.48)"/><path id="X" class="cls-3" d="M157.5,205.35c2.23-3.09,4.33-6,6.4-8.88,1.11-1.56,2.07-3.24,3.29-4.7a2.47,2.47,0,0,0,.19-3.37c-1.51-2.52-2.78-5.19-4.18-7.79-.48-.88-.59-1.32.72-1.49,1.93-.27,4.1-1.61,5.7-.85s1.89,3.28,2.78,5c.17.33.32.66.58,1.2,1.46-2.13,2.94-4.12,4.26-6.21s3-3.61,5.69-3.62a18.84,18.84,0,0,0,3.68-.84c-3.28,4.56-6.14,8.8-9.3,12.81-1.45,1.84-1.61,3.2-.3,5.14,1.61,2.4,2.85,5,4.31,7.53.54.92.32,1.3-.65,1.49-1.64.31-3.28.6-4.89,1-.9.23-1.29.05-1.66-.86-.86-2.09-1.89-4.11-3-6.4-1.87,2.74-3.7,5.26-5.34,7.89a4.11,4.11,0,0,1-3.34,2.16C160.91,204.74,159.41,205.36,157.5,205.35Z" transform="translate(-2 -9.48)"/><path id="E2" class="cls-3" d="M155.24,200.88a20.39,20.39,0,0,0-.71,3.82c0,1.38-.62,1.83-1.79,2.07-5.06,1-10.13,2.1-15.17,3.24-1.34.29-1.47,0-1.23-1.27q2.24-11.51,4.35-23a2.27,2.27,0,0,1,2.07-2.09c5.49-1.09,11-2.31,16.53-3.52.06,1.69-.55,3.39-.75,5.13-.07.6-.66.56-1.16.67-3.25.69-6.47,1.54-9.74,2.11-1.08.19-1.54.63-1.63,1.54-.1,1.09-.67,2.12-.47,3.37l9.66-2.13c.77-.17,1.44-.21,1,.93a.7.7,0,0,0-.06.17c.11,3.73-2.07,5-5.41,5.24-1.82.15-3.6.83-5.42,1.1-1.45.22-1.38,1.37-1.59,2.28-.74,3.12-.72,3.1,2.41,2.37C149.11,202.19,152.1,201.57,155.24,200.88Z" transform="translate(-2 -9.48)"/><path id="D2" class="cls-3" d="M128,196.07c-.53,8.9-5.64,16.78-15.38,18.9-2.83.61-5.67,1.14-8.48,1.8-1.4.33-1.75-.13-1.49-1.43q1.75-8.79,3.47-17.59c.36-1.81.71-3.62,1-5.44.18-1,.52-1.59,1.68-1.77,3.83-.62,7.53-1.82,11.45-2.07C125.56,188.14,127.85,191.62,128,196.07Zm-18.24,13.74c8-.36,11.36-4.8,11.53-12.14a2.84,2.84,0,0,0-1.94-3.07,11.76,11.76,0,0,0-6.4.46c-.59.17-.54.72-.63,1.22C111.46,200.75,110.6,205.21,109.73,209.81Z" transform="translate(-2 -9.48)"/><path id="R" class="cls-3" d="M76.94,222.61c1.74-8.73,3.45-17.21,5.1-25.71.13-.64.28-1,.93-1.11,4.21-.9,8.37-2.15,12.68-2.46,4.79-.35,6.89,2.33,5.89,7.08A12.22,12.22,0,0,1,95.43,209c-.87.49-.9.95-.54,1.73,1,2.06,1.85,4.14,2.82,6.19.39.84.44,1.28-.69,1.46a47,47,0,0,0-4.67,1,1.22,1.22,0,0,1-1.66-.94c-.67-1.91-1.3-3.84-2-5.72-.15-.39,0-1.47-.88-1-1,.53-2.69-.34-3.05,1.4-.44,2.17-.81,4.35-1.15,6.54a2.11,2.11,0,0,1-1.93,2C80.13,221.93,78.65,222.27,76.94,222.61Zm9.16-15.82c1.51-.28,2.77-.49,4-.75,2.46-.51,4.31-1.73,4.92-4.35A2,2,0,0,0,92.62,199a27.55,27.55,0,0,1-3.43.64c-1.52,0-2,.85-2.21,2.1C86.7,203.36,86.41,205,86.1,206.79Z" transform="translate(-2 -9.48)"/><g id="_" data-name="!"><path id="_2" data-name="!" class="cls-3" d="M334.25,74.45C331.47,86.37,328.71,98.2,326,110c-.51,2.23-1,4.48-1.41,6.73a1.79,1.79,0,0,1-1.65,1.64c-3,.59-6.06,1.32-9.06,2.06-1.18.29-1.67.16-1.51-1.24,1-8.45,1.84-16.91,2.79-25.37.53-4.68,1.17-9.35,1.69-14,.1-.83.24-1.36,1.16-1.59,5.24-1.28,10.46-2.6,15.7-3.9A2.55,2.55,0,0,1,334.25,74.45Z" transform="translate(-2 -9.48)"/><path id="_." data-name="." class="cls-3" d="M323.36,123.73c-.29,1.24-.55,2.5-.82,3.75-.4,2.08-.75,4.19-1,6.32a1.24,1.24,0,0,1-.38.91c0,.09-.13.13-.2.18l-.11.06a.51.51,0,0,1-.22.11,1.6,1.6,0,0,1-.42.16c-1,.2-1.93.42-2.89.67-2.48.57-5,1.22-7.43,1.86a1.22,1.22,0,0,1-.95,0c-.38-.09-.47-.47-.36-1.16.53-3,1-6.1,1.44-9.16a1.22,1.22,0,0,1,1-1.13c1.07-.25,2.14-.49,3.2-.71,2.91-.71,5.79-1.4,8.7-2.09.09,0,.22.07.42.13,0,0,0,.07,0,.09S323.34,123.73,323.36,123.73Z" transform="translate(-2 -9.48)"/></g><path id="E" class="cls-3" d="M305.8,81.51c-.49,3.43-.92,6.61-1.43,9.78-.56,3.51-.6,3.47-4.12,4.25-8.06,1.78-16.1,3.6-24.16,5.37a1.51,1.51,0,0,0-1.37,1.45c-.35,2.46-.75,4.91-1.17,7.35-.2,1.17.25,1.16,1.22.92,7.58-1.87,15.18-3.67,22.78-5.5,1.93-.46,1.95-.41,1.61,1.58-.49,3-1,6-1.36,9-.12,1-.44,1.31-1.41,1.53-7.92,1.78-15.82,3.68-23.75,5.46-1.09.25-1.57.67-1.71,1.77-.29,2.4-.7,4.79-1.07,7.18-.19,1.17-.21,1.8,1.43,1.4,8.37-2,16.78-3.93,25.15-6,1.47-.36,1.51.08,1.32,1.26a99,99,0,0,0-1.49,10.3c-.06,1.16-1,1-1.61,1.13-7.75,1.7-15.52,3.35-23.28,5-5.93,1.28-11.88,2.53-17.79,3.93-1.47.35-1.38-.1-1.2-1.21q3.68-23.64,7.3-47.3c.35-2.27.82-4.53,1-6.81.09-1.28.67-1.63,1.74-1.88q15.49-3.54,31-7.13Z" transform="translate(-2 -9.48)"/><path id="L" class="cls-3" d="M249,138.36c-.49,3.6-1,7-1.4,10.49a1.56,1.56,0,0,1-1.44,1.57q-16.34,3.65-32.65,7.36c-2,.45-1.13-.94-1-1.6,1-6.75,2.1-13.49,3.14-20.24,1.64-10.67,3.3-21.34,4.84-32,.27-1.87.78-2.83,2.87-3.19,4-.69,7.85-1.79,11.76-2.75,1.09-.27,1.67-.34,1.43,1.19-2.11,13.3-4.13,26.6-6.2,39.9-.21,1.3-.21,1.91,1.5,1.49,5.18-1.28,10.4-2.35,15.6-3.53C248.75,136.7,249.64,136.75,249,138.36Z" transform="translate(-2 -9.48)"/><path id="A" class="cls-3" d="M208.6,158.09c.13.6-.22.83-.89,1-4.24.94-8.48,1.9-12.7,2.92-1.11.27-1.11-.44-1.22-1.09-.4-2.26-.83-4.52-1.13-6.8-.13-1-.4-1-1.28-.78-5.15,1.13-10.31,2.18-15.48,3.19a2.39,2.39,0,0,0-2,1.62c-1.08,2.7-2.29,5.35-3.35,8a2.56,2.56,0,0,1-2.08,1.79c-4,.78-7.89,1.66-11.83,2.5-.42.09-.93.33-1.24,0s.08-.91.26-1.31c8-17.65,15.51-35.53,23.09-53.38a12.56,12.56,0,0,0,.88-2c.74-3.17,2.74-4.5,5.92-5,4.83-.78,9.59-2,14.35-3.15.91-.22,1.13-.15,1.27.81q2.73,19.17,5.53,38.32C207.33,149.12,208,153.55,208.6,158.09Zm-29.16-13.86c2.58-.53,4.75-1,6.92-1.43,1.76-.37,4.19-.2,5.07-1.29s-.19-3.5-.44-5.31c-.61-4.51-1.3-9-2-13.52l-.38-.07C185.62,129.69,182.61,136.77,179.44,144.23Z" transform="translate(-2 -9.48)"/><path id="D" class="cls-3" d="M162.1,130.51a83,83,0,0,1-5,24.31c-3.76,9.91-10.85,16.26-21,18.94-8.8,2.34-17.77,4.09-26.66,6.09-1.71.39-1-.87-.86-1.45,1.06-5.73,2.22-11.45,3.28-17.18q3.73-20.13,7.39-40.28c.14-.8.26-1.28,1.24-1.46,7.38-1.39,14.73-2.89,22.1-4.28a22.77,22.77,0,0,1,8.15-.3c6.61,1.16,10.44,5.2,11.1,11.85C162.05,128.11,162.05,129.48,162.1,130.51Zm-14.95,5c.36-5.56-2.07-7.8-6.81-7.25-2.11.24-4.12,1-6.2,1.13-1.72.13-2.1,1-2.33,2.45-.53,3.49-1.19,7-1.83,10.44-1.25,6.76-2.49,13.52-3.78,20.27-.21,1.07.14,1.15,1,.95a59.13,59.13,0,0,0,8-2.23,14.59,14.59,0,0,0,9.45-10.9A145.55,145.55,0,0,0,147.15,135.52Z" transform="translate(-2 -9.48)"/><g id="i"><path id="i-2" data-name="i" class="cls-3" d="M106.58,139.7c-1.46,8.37-2.84,16.78-4.28,25.14-.82,4.64-1.73,9.28-2.53,13.92-.15.84-.31,1.35-1.24,1.53-5.3,1-10.61,2-15.91,3a3.59,3.59,0,0,1-.58-.17c3.49-11.74,6.95-23.37,10.39-35,.64-2.22,1.24-4.42,1.82-6.66A1.79,1.79,0,0,1,96,139.88c3.06-.4,6.12-.95,9.16-1.51C106.34,138.15,106.83,138.3,106.58,139.7Z" transform="translate(-2 -9.48)"/><path id="_.-2" data-name="." class="cls-3" d="M111.35,122.57c-.68,3-1.35,6.06-2,9.08a1.23,1.23,0,0,1-1.09,1.08l-12.07,2c-.09,0-.2-.09-.4-.18a101.81,101.81,0,0,0,2.53-10,1.39,1.39,0,0,1,1.33-1.26c3.53-.56,7.06-1.2,10.59-1.84C111.33,121.22,111.6,121.57,111.35,122.57Z" transform="translate(-2 -9.48)"/></g></g><g id="camion"><path id="cristal_puerta" data-name="cristal puerta" class="cls-3" d="M201.74,56.76c1-7.28,2.07-14.32,3.06-21.36.08-.56.44-.68.84-.83l13.55-5a31.39,31.39,0,0,0,1.4,4.3c.9,1.83.15,2.48-1.5,3.05-2.69.93-5.3,2.06-8,3.11a4.86,4.86,0,0,0-3.27,4.61c-.23,3.21-.74,6.4-1.12,9.6a1.65,1.65,0,0,1-1.49,1.58C204.17,56,203.11,56.39,201.74,56.76Z" transform="translate(-2 -9.48)"/><path id="bonete" class="cls-3" d="M234.92,52.54a55.49,55.49,0,0,1,10.17-2.48,121.75,121.75,0,0,1,31.56-1,64.66,64.66,0,0,1,12.15,1.71c.45.13,1.22,0,1.11.67-.15.89-.84.27-1.33.28-4.77.09-9.55.16-14.32.37a28.49,28.49,0,0,0-8.08,1.2,2.2,2.2,0,0,1-1.26-.1c-6.19-1.81-12.51-1.64-18.85-1.49C242.34,51.81,238.68,52.51,234.92,52.54Z" transform="translate(-2 -9.48)"/><path id="tanque" class="cls-3" d="M197.42,89.61c.12-.49.21-.78.25-1.08.26-1.94-.09-4.38,1.2-5.65s3.51-1.32,5.36-1.79c2.25-.58,4.55-1,6.81-1.54,1.1-.28,2-1.17,3.21-1.18.82,0,2.31-.6,1.53,1.47a14.36,14.36,0,0,0-.42,4c-.06.84-.19,1.48-1.24,1.74-5.33,1.31-10.65,2.7-16,4.06A4.24,4.24,0,0,1,197.42,89.61Z" transform="translate(-2 -9.48)"/><path id="foco" class="cls-3" d="M259.46,62.39h.18c4.89-.08,6.28,1.68,5.25,6.52-.17.8-.65,1-1.29,1-3.62.53-7.24,1-10.85,1.61-.91.14-1.23-.36-1.53-1a11.08,11.08,0,0,1-1-5.06,2.83,2.83,0,0,1,2.93-2.76c2.1-.17,4.21-.27,6.31-.4Z" transform="translate(-2 -9.48)"/><path id="guardalodo" class="cls-3" d="M244.12,71.3a19.16,19.16,0,0,0-1.77-1.83c-2.94-2.41-6.92-2.43-10.51,0-4.12,2.83-6.65,6.93-8.7,11.38-.53,1.15-.81,2.45-2.06,3.48a4.76,4.76,0,0,1,.31-3.3c1.25-3.88,2.78-7.58,5.76-10.61,2.27-2.31,4.42-4.55,7.67-5.53a7,7,0,0,1,9.06,4.8c.12.46.32.91.48,1.36Z" transform="translate(-2 -9.48)"/><path id="rueda" class="cls-3" d="M236.16,84.54a14.43,14.43,0,0,1-1.64,6.89c-.55,1-1.29,1.89-2.63,1.59-1.18-.26-1.46-1.35-1.56-2.29a11.46,11.46,0,0,1,2.34-8.36,2.06,2.06,0,0,1,2.24-1c.94.22.89,1.08,1.05,1.77A11.36,11.36,0,0,1,236.16,84.54Z" transform="translate(-2 -9.48)"/><path id="compuerta" class="cls-3" d="M226.81,53.44c.07,1-.6,1.27-1.24,1.5-3.21,1.15-6.42,2.28-9.61,3.45-.93.34-1.65,0-1.67-.81s-1.16-2,.59-2.57c3.54-1.12,7-2.48,10.57-3.51C227.43,50.92,225.89,53.17,226.81,53.44Z" transform="translate(-2 -9.48)"/><path id="compuerta1" class="cls-3" d="M209.5,59.71c.69,0,1.14,0,1.3.52s-.28.82-.65,1c-2.66,1.12-5.33,2.2-8,3.3-.49.2-.66,0-.69-.5a1.1,1.1,0,0,1,.46-1.13A29.46,29.46,0,0,1,209.5,59.71Z" transform="translate(-2 -9.48)"/><path id="portaplaca" class="cls-3" d="M289.41,73.55c.57,0,1.22-.23,1.21.39,0,.87.44,2.09-.64,2.52a47.6,47.6,0,0,1-7.91,2c-.74.15-.82-.48-.76-1,.11-.9-.42-2.14,1-2.45C284.73,74.48,287.15,74,289.41,73.55Z" transform="translate(-2 -9.48)"/><path id="parrilla2" class="cls-3" d="M274.72,67.44c5.89-1.32,11.79-2.38,17.86-2A90.86,90.86,0,0,1,274.72,67.44Z" transform="translate(-2 -9.48)"/><path id="parrilla1" class="cls-3" d="M274.53,61a69.68,69.68,0,0,1,17.77-1A111.14,111.14,0,0,1,274.53,61Z" transform="translate(-2 -9.48)"/><path id="Cam1" class="cls-3" d="M234.79,50.83c-1.7-2.72-2.42-5.72-3.43-8.62a117,117,0,0,0-5.6-13.57c-.84-1.7-.78-1.9,1.21-2,4.34-.19,8.69-.37,13-.41,6.84-.07,13.68,0,21.05,0-2.38-1.44-4.59-1.54-6.7-1.82C243.94,23,233.47,22.25,223,21.87a27.54,27.54,0,0,0-15.22,3.42,7.18,7.18,0,0,1-.84.39s-.1-.05-.26-.14a7.46,7.46,0,0,1,3.11-2.68,20.48,20.48,0,0,1,9.89-3,170.65,170.65,0,0,1,35.13,1.74,15.65,15.65,0,0,1,11.79,8.43c2.52,4.67,4.19,9.66,6,14.6a5.15,5.15,0,0,1,.13,1.12c-1-.4-1.11-1.28-1.42-2a74.29,74.29,0,0,0-4.09-7.29,2,2,0,0,0-1.65-1c-10.85-.89-21.72-1.19-32.6-1.15-1.33,0-1.42.51-1.08,1.55a90,90,0,0,1,2.71,12.34C234.73,49.09,234.72,50,234.79,50.83Z" transform="translate(-2 -9.48)"/></g><path id="FireGreen1" class="cls-2" d="M196.59,28.33C193.77,47.7,191,66.72,188,86c-.68,4.17.4,3.13-3.75,4.39-7.33,2-14.76,3.89-22.21,5.2,6.65-3.72,13.62-5.89,20-9.19-.29-.09-58,17.91-86.81,25.3,30.51-14,61.5-27.19,91.8-41.7-.36-.22-98.68,38.33-147.86,56.05,0,0,99-45.59,147.53-70.23-42.4,14.67-84.49,33.86-126,50.51,43.69-22.23,88.62-44.51,132.34-67.26C150.78,56.43,107.69,75,66.11,94.26,109.14,71.52,152.92,49.92,196.59,28.33Z" transform="translate(-2 -9.48)"/></g></svg>